<svg width="2595" height="1024" viewBox="0 0 2595 1024" fill="none" xmlns="http://www.w3.org/2000/svg">
<rect x="71" y="12" width="622" height="999" rx="82" fill="#343434"/>
<rect x="135" y="97" width="118" height="143" rx="15" fill="white"/>
<rect x="135" y="287" width="118" height="143" rx="15" fill="white"/>
<rect x="135" y="477" width="118" height="143" rx="15" fill="white"/>
<rect x="492" y="97" width="118" height="143" rx="15" fill="white"/>
<rect x="492" y="287" width="118" height="143" rx="15" fill="white"/>
<rect x="492" y="477" width="118" height="143" rx="15" fill="white"/>
<rect x="321" y="97" width="118" height="143" rx="15" fill="white"/>
<rect x="321" y="287" width="118" height="143" rx="15" fill="white"/>
<rect x="321" y="477" width="118" height="143" rx="15" fill="white"/>
<path d="M405 661C414.455 661 431.765 667.279 440.5 671.5C449.235 675.721 461.814 685.7 468.5 693.5C475.186 701.3 481.382 709.809 485 720C488.618 730.191 491 737 486.5 744C484.121 747.7 464 747 457.5 747C451 747 434.593 747 432 747C430.481 747 427.474 745.339 426 742C422.138 733.248 420.007 715.569 417 705.5C409.351 679.886 405 661 405 661Z" fill="#C7ABFF"/>
<path d="M368.5 649H393C393 649 400.439 674.247 406.5 700.5C412.928 728.342 419.94 758.675 424 759C436.5 760 472 759 476.5 760C481 761 486.072 765.231 486.5 770V1011.5H272.5C272.5 1011.5 273.146 943.145 273 879C272.5 823.5 272.5 772 273 769C273.5 766 279.469 761.067 284.5 760.5C300.5 760 335.65 761.036 338.5 759C342.071 756.45 347.779 727.881 354.5 700.5C360.955 674.202 368.5 649 368.5 649Z" fill="white"/>
<path d="M486.5 1011.5H272.5C272.5 1011.5 273.146 943.145 273 879C272.5 823.5 272.5 772 273 769C273.5 766 279.469 761.067 284.5 760.5C300.5 760 335.65 761.036 338.5 759C342.071 756.45 347.779 727.881 354.5 700.5C360.955 674.202 368.5 649 368.5 649H393C393 649 400.439 674.247 406.5 700.5C412.928 728.342 419.94 758.675 424 759C436.5 760 472 759 476.5 760C481 761 486.072 765.231 486.5 770M486.5 1011.5C486.5 1011.5 486.5 811 486.5 770M486.5 1011.5V770" stroke="black"/>
<path d="M356.5 661C347.045 661 329.736 667.279 321 671.5C312.265 675.721 299.686 685.7 293 693.5C286.314 701.3 280.118 709.809 276.5 720C272.882 730.191 270.5 737 275 744C277.379 747.7 297.5 747 304 747C310.5 747 326.907 747 329.5 747C331.019 747 334.026 745.339 335.5 742C339.362 733.248 341.493 715.569 344.5 705.5C352.149 679.886 356.5 661 356.5 661Z" fill="#C7ABFF"/>
<rect x="291" y="783" width="76" height="90" rx="12" fill="#343434"/>
<rect x="291" y="898" width="76" height="90" rx="12" fill="#343434"/>
<rect x="394" y="783" width="76" height="90" rx="12" fill="#343434"/>
<rect x="394" y="898" width="76" height="90" rx="12" fill="#343434"/>
</svg>
