<svg width="368" height="298" viewBox="0 0 368 298" fill="none" xmlns="http://www.w3.org/2000/svg">
<path d="M165.748 14.2602V5.33027C165.748 3.34584 164.029 1.79138 162.077 2.02289C88.2896 10.3906 31.0058 72.9331 31.0058 148.937C31.0058 223.353 91.3324 283.746 165.748 283.746V292.642C165.748 294.627 167.468 296.181 169.42 295.983C243.141 287.615 300.392 224.94 300.458 149.003C300.491 74.5868 240.165 14.2602 165.748 14.2602Z" fill="#C7ABFF" stroke="none" stroke-width="2" stroke-miterlimit="10" stroke-linecap="round" stroke-linejoin="round"/>
<path d="M122.521 57.7191C122.389 56.363 122.289 54.9409 122.786 53.6841C122.951 53.2541 123.216 52.8241 123.646 52.5926C124.042 52.3611 124.638 52.3942 124.935 52.7249C125.233 53.0557 125.233 53.5518 125.2 53.9817C125.167 54.7424 125.101 55.5031 124.803 56.1646C124.505 56.8261 123.877 57.4545 123.149 57.4876" fill="black"/>
<path d="M257.76 128.861L225.777 132.267C222.867 132.565 220.254 130.515 219.857 127.637L215.458 95.5556L213.242 79.2502L205.47 22.2971C205.371 21.6025 205.404 20.941 205.569 20.3457C205.702 19.8165 205.9 19.3204 206.165 18.8905C207.025 17.4021 208.612 16.3438 210.464 16.2115L342.429 7.67844C345.405 7.48 347.985 9.72902 348.184 12.7057L348.647 68.9973L349.01 114.143C349.143 116.293 348.018 118.211 346.265 119.203C346.265 119.203 346.232 119.203 346.199 119.236C345.604 119.567 344.909 119.766 344.182 119.865L298.639 124.76" fill="#C7ABFF"/>
<path d="M257.76 128.861L225.777 132.267C222.867 132.565 220.254 130.515 219.857 127.637L215.458 95.5556L213.242 79.2502L205.47 22.2971C205.371 21.6025 205.404 20.941 205.569 20.3457C205.702 19.8165 205.9 19.3204 206.165 18.8905C207.025 17.4021 208.612 16.3438 210.464 16.2115L342.429 7.67844C345.405 7.48 347.985 9.72902 348.184 12.7057L348.647 68.9973L349.01 114.143C349.143 116.293 348.018 118.211 346.265 119.203C346.265 119.203 346.232 119.203 346.199 119.236C345.604 119.567 344.909 119.766 344.182 119.865L298.639 124.76" stroke="black" stroke-width="1.2" stroke-miterlimit="10" stroke-linecap="round" stroke-linejoin="round"/>
<path d="M349.01 114.143C349.143 116.293 348.018 118.211 346.265 119.204C346.265 119.204 346.232 119.204 346.199 119.237C345.604 119.567 344.909 119.766 344.182 119.865L298.639 124.793C298.573 124.76 298.54 124.694 298.441 124.661C297.746 124.33 296.787 124.495 295.695 124.958H295.365L288.75 125.653C289.015 123.47 288.816 121.221 288.188 119.071C288.022 118.542 287.791 117.914 287.229 117.748C286.501 117.55 285.873 118.244 285.509 118.906C284.55 120.593 283.987 122.445 283.26 124.264C282.995 124.958 282.697 125.62 282.4 126.281L278.696 126.678C279.952 124.661 280.878 122.445 281.507 120.163C281.639 119.7 281.771 119.204 281.705 118.707C281.672 118.211 281.408 117.715 280.978 117.484C280.548 117.252 279.985 117.318 279.555 117.55C279.125 117.781 278.762 118.145 278.431 118.509C276.91 120.13 275.388 121.75 273.867 123.371C272.643 124.694 271.386 126.017 270.162 127.307C266.26 127.77 261.497 128.167 257.826 128.795C257.793 128.795 257.76 128.795 257.727 128.795V128.762L225.744 132.168C222.834 132.466 220.221 130.416 219.824 127.538L215.425 95.4566L227.861 94.5636L229.846 111.729C229.978 112.986 231.135 113.912 232.392 113.779L259.91 111.067C261.166 110.935 262.092 109.844 261.993 108.587L260.803 92.2153L263.647 92.0169L266.293 91.8184L267.517 107.33C267.649 108.951 269.071 110.141 270.692 110.009L297.151 107.396C298.672 107.231 299.83 105.908 299.764 104.386L299.102 89.5033L304.89 89.1064L305.452 104.453C305.485 105.61 306.511 106.503 307.668 106.404L336.046 103.659C337.104 103.56 337.898 102.667 337.865 101.608L337.6 86.8574L348.151 86.0305H348.647L349.01 114.143Z" fill="white"/>
<path d="M348.25 23.7524L348.647 68.9974L296.489 49.9138L258.984 36.1551L239.735 54.2796L213.242 79.2503L207.091 34.0384L348.25 23.7524Z" fill="#C7ABFF"/>
<path d="M348.184 12.6727L348.283 23.7524L207.091 34.0384L205.503 22.2972C205.404 21.6026 205.437 20.9412 205.602 20.3128L206.198 18.8575C207.058 17.3692 208.645 16.3108 210.497 16.1785L342.462 7.64549C345.405 7.44704 347.985 9.69606 348.184 12.6727ZM245.258 27.7544C248.201 27.7544 250.384 25.3069 250.153 22.2972C249.921 19.2875 247.342 16.84 244.365 16.84C241.388 16.84 239.238 19.2875 239.47 22.2972C239.735 25.3069 242.314 27.7544 245.258 27.7544ZM231.036 28.8127C233.98 28.8127 236.163 26.3653 235.931 23.3555C235.7 20.3458 233.12 17.8984 230.176 17.8984C227.233 17.8984 225.05 20.3458 225.281 23.3555C225.513 26.3653 228.093 28.8127 231.036 28.8127ZM216.517 29.838C219.46 29.838 221.643 27.3905 221.412 24.3808C221.18 21.3711 218.6 18.9237 215.657 18.9237C212.713 18.9237 210.53 21.3711 210.762 24.3808C210.993 27.3905 213.573 29.838 216.517 29.838Z" fill="white"/>
<path d="M344.182 119.832C344.909 119.766 345.571 119.534 346.199 119.203C345.769 119.435 343.355 120.857 340.279 122.577C338.989 123.305 337.534 123.768 336.046 123.933L297.911 127.935C298.837 126.38 299.168 125.223 298.639 124.727L344.182 119.832Z" fill="black"/>
<path d="M337.997 101.707C338.03 102.766 337.236 103.659 336.178 103.758L307.8 106.503C306.643 106.602 305.618 105.709 305.585 104.552L305.022 89.2055L304.692 80.4079C304.658 79.3165 305.452 78.4235 306.544 78.3242L335.384 75.8437C336.542 75.7445 337.567 76.6375 337.567 77.8281L337.732 86.9896L337.997 101.707Z" fill="white"/>
<path d="M299.863 104.485C299.929 106.04 298.771 107.363 297.25 107.495L270.791 110.108C269.17 110.273 267.748 109.05 267.616 107.429L266.392 91.9174L265.83 84.7735C265.698 83.1859 266.888 81.7968 268.476 81.6315L295.762 79.2171C297.415 79.0848 298.871 80.3416 298.937 81.9953L299.267 89.5692L299.863 104.485Z" fill="white"/>
<path d="M295.398 124.925H295.729C293.744 125.752 291.429 127.472 289.742 128.861L288.055 129.026C288.419 127.935 288.651 126.777 288.783 125.62L295.398 124.925Z" fill="black"/>
<path d="M278.729 126.678L282.433 126.281C281.904 127.373 281.242 128.398 280.415 129.225C280.184 129.456 279.919 129.688 279.655 129.886L276.083 130.25C277.042 129.159 277.935 127.968 278.729 126.678Z" fill="black"/>
<path d="M262.059 108.686C262.159 109.943 261.233 111.034 259.976 111.166L232.458 113.878C231.202 114.011 230.077 113.085 229.912 111.828L227.927 94.6625L227.133 87.717C226.968 86.4272 227.927 85.2365 229.25 85.1373L257.826 82.6237C259.116 82.4914 260.24 83.4836 260.34 84.7735L260.902 92.3474L262.059 108.686Z" fill="white"/>
<path d="M257.76 128.861C251.211 129.952 246.085 131.408 240.859 134.285L240.694 133.954L221.147 136.005C218.237 136.302 215.624 134.285 215.26 131.441L201.336 33.1783C201.071 31.4254 201.667 30.3009 202.427 28.1842L205.569 20.2795C205.437 20.9079 205.371 21.5694 205.47 22.264L207.058 34.0052L213.242 79.2171L215.458 95.5224L219.857 127.604C220.254 130.481 222.867 132.532 225.777 132.234L257.76 128.861Z" fill="black"/>
<path d="M253.824 151.02L254.353 151.483C252.964 153.501 251.443 155.75 249.756 158.131L249.392 157.536C244.828 156.841 240.528 154.559 237.419 151.186C234.608 148.143 232.789 144.24 232.194 140.172C233.451 139.279 234.707 138.353 236.063 137.394C237.254 136.534 238.412 135.773 239.569 135.079L239.602 135.145C239.966 138.948 241.587 142.587 244.133 145.431C246.647 148.242 250.087 150.26 253.824 151.02Z" fill="white"/>
<path d="M164.955 32.484C164.922 33.3439 164.789 36.4198 164.723 37.7096H164.69C160.457 35.2622 138.43 23.8848 117.163 36.7174L116.998 36.7505C116.667 35.5598 115.906 32.6824 115.642 31.6571C138.727 17.2369 163.4 31.5248 164.955 32.484Z" fill="black"/>
<path d="M164.227 98.2015C164.889 98.8961 165.715 99.4914 166.575 99.8883C161.647 103.394 156.719 104.915 152.287 105.345C151.758 104.486 151.461 100.318 151.626 99.8883V99.7229C159.167 99.0945 162.606 95.9525 162.706 95.8533C162.805 96.0517 162.904 96.2502 163.003 96.4486C163.301 97.077 163.731 97.6723 164.227 98.2015Z" fill="black"/>
<path d="M164.227 51.8982C164.194 52.8573 164.161 55.9332 164.128 56.7269C163.036 56.1978 161.085 55.3709 159.134 54.4448C153.445 51.5674 148.55 50.6414 140.513 50.8398C132.344 51.0382 127.912 52.8573 125.035 54.3787C123.976 54.9409 122.951 55.6024 122.455 56.0324C122.223 55.2717 121.397 52.3612 121.099 51.2698C138.926 41.2153 156.918 48.1608 164.227 51.8982Z" fill="black"/>
<path d="M164.128 56.7271L163.003 64.6317C162.375 65.2601 161.879 66.0539 161.482 66.8477C161.317 66.7485 160.721 66.5169 160.357 64.8963L158.307 54.1804C161.548 55.2719 163.533 56.3633 164.128 56.7271Z" fill="black"/>
<path d="M143.655 92.3476C140.811 92.2153 138.396 91.2231 136.379 89.6356C132.542 86.6589 130.062 81.5655 128.441 76.1745C127.581 73.3302 126.986 70.3866 126.523 67.6415C126.49 67.3769 126.457 67.1454 126.391 66.8808C125.432 60.4975 125.398 55.1726 125.398 54.2135C126.457 53.6513 127.846 53.0559 129.599 52.5598C129.698 53.2544 129.566 54.0481 129.566 54.7096C129.533 56.4956 129.566 58.3147 129.632 60.1006C129.698 61.9197 129.83 63.7057 130.029 65.4917C130.227 67.2777 130.459 69.0967 130.756 70.8496C130.789 71.0812 130.823 71.2796 130.889 71.5111C131.682 75.9761 132.873 80.4741 135.155 84.3768C137.173 87.7503 140.083 90.727 143.655 92.3476Z" fill="white"/>
<path d="M144.383 92.3476C152.453 92.3476 155.926 84.6083 156.157 84.1453C150.634 100.153 138 98.2347 136.809 98.0032H136.776H136.743L136.379 97.904C136.577 97.1763 136.71 96.3826 136.743 95.5888C136.809 92.546 136.412 89.6355 136.412 89.6355C138.562 91.3223 141.208 92.3476 144.383 92.3476Z" fill="black"/>
<path d="M151.593 99.723V99.8884C151.428 100.318 151.758 104.486 152.254 105.346C142.101 106.305 134.328 101.542 134.328 101.542C135.254 100.484 135.949 99.2269 136.346 97.8708L136.71 97.9701H136.743H136.776C142.861 99.723 147.756 100.054 151.593 99.723Z" fill="black"/>
<path d="M104.165 151.946C103.14 150.723 102.048 149.565 100.957 148.408C100.957 148.408 99.667 132.532 103.272 122.61C103.537 121.783 103.9 120.989 104.297 120.229C107.076 115.036 112.731 111.629 118.585 109.017L119.114 109.149C127.118 140.767 135.288 175.23 142.398 207.279C136.908 205.691 131.782 204.005 126.986 201.458C125.597 200.73 124.208 199.903 122.852 199.01C121.926 198.415 121.033 197.754 120.14 197.059L120.04 196.993C121.165 195.174 122.124 193.256 122.852 191.271C117.791 196.232 106.844 194.612 99.0055 187.898C95.1359 185.02 92.1923 181.118 89.5134 177.083C85.5114 171.096 82.0056 164.779 79.062 158.164H79.0951C81.0134 161.108 84.3869 162.96 87.8927 163.324C91.3655 163.688 94.9705 162.563 97.7818 160.479C100.626 158.429 102.743 155.419 104 152.145L104.165 151.946Z" fill="black"/>
<path d="M132.774 100.517C132.774 100.517 133.468 101.939 133.733 102.171C133.005 102.865 132.146 103.427 131.186 103.857C127.78 105.412 123.116 106.966 118.552 109.017C112.731 111.63 107.042 115.036 104.264 120.229C104.264 120.229 103.007 117.252 104.364 115.235C108.101 108.752 132.774 100.517 132.774 100.517Z" stroke="#C7ABFF" stroke-width="1.2" stroke-miterlimit="10" stroke-linecap="round" stroke-linejoin="round"/>
<path d="M126.424 66.8477L126.093 66.8808C122.719 64.8963 122.455 56.0326 122.455 56.0326C122.488 56.1648 122.521 56.2641 122.521 56.2641C122.521 56.2641 123.381 55.2719 125.432 54.1804C125.432 55.1396 125.465 60.4644 126.424 66.8477Z" fill="black"/>
<path d="M104.165 151.946L103.9 152.178C102.644 155.452 100.527 158.429 97.6826 160.513C94.8382 162.596 91.2663 163.688 87.7935 163.357C84.2877 162.993 80.9472 161.141 78.9959 158.197H78.9628C78.6321 157.503 78.3344 156.775 78.0367 156.081L78.0037 155.585C79.3266 155.518 80.5504 155.353 81.6749 155.155L81.7079 155.287C85.1476 156.213 88.918 155.882 92.1262 154.361C95.3343 152.839 97.9472 150.127 99.4024 146.853C99.9316 147.382 100.428 147.878 100.924 148.408C102.048 149.565 103.14 150.756 104.165 151.946Z" fill="white"/>
<path d="M70.6944 99.0945L68.0815 125.388L67.0893 125.454C66.957 125.421 66.7917 125.388 66.6594 125.388C66.5601 125.388 66.4609 125.388 66.3286 125.388L62.4921 125.52L64.8403 101.873L61.2683 99.5575L58.8539 97.97C58.8539 97.97 58.6555 86.0634 52.7353 81.5654C51.9746 81.0031 51.1147 80.6062 50.1886 80.507C44.996 79.9117 42.2509 87.3533 42.2509 87.3533L37.7859 84.2774L28.7568 178.174C31.105 178.538 32.7587 180.688 32.5272 183.069L51.71 186.112C51.9746 183.532 54.3559 181.713 56.9026 182.11L60.0115 150.657C61.5991 151.88 63.385 152.906 65.2703 153.666L60.3092 193.057L22.3735 187.038L33.1887 74.686L40.7295 79.581C40.7295 79.581 46.0544 71.7755 54.0913 76.439C63.9473 82.1607 64.3442 94.9603 64.3442 94.9603L70.6944 99.0945Z" fill="white"/>
<path d="M64.8734 101.873L62.5251 125.521L53.1652 125.818C52.4376 125.785 51.7431 126.149 51.1808 126.81L48.2042 126.91L45.5583 126.976V166.267C45.5583 167.557 46.6166 168.616 47.9065 168.616H51.1808C51.3462 168.649 51.5116 168.649 51.6769 168.616C53.0991 168.516 54.1905 167.326 54.1905 165.904L54.0252 141.264C54.5213 143.546 55.5135 145.696 56.9357 147.581C57.8286 148.738 58.8539 149.764 60.0115 150.657L56.9026 182.11C54.3559 181.713 52.5699 183.565 52.3384 186.145L32.5272 183.069C32.7587 180.688 31.105 178.571 28.7568 178.174L37.7859 84.2775L42.2509 87.3533C42.2509 87.3533 45.0291 79.9117 50.1886 80.5071C51.1147 80.6063 51.9746 81.0032 52.7353 81.5654C58.6555 86.0635 58.8539 97.97 58.8539 97.97L61.2683 99.5576L64.8734 101.873ZM56.9357 108.388C56.9357 104.287 54.8851 100.947 52.3715 100.947C51.9746 100.947 51.6108 101.013 51.247 101.178C50.817 100.98 50.387 100.847 49.8909 100.847C47.3773 100.847 45.3268 104.188 45.3268 108.289C45.3268 112.39 47.3773 115.731 49.8909 115.731C50.2878 115.731 50.6516 115.665 51.0154 115.499C51.4454 115.698 51.8754 115.83 52.3715 115.83C54.8851 115.83 56.9357 112.489 56.9357 108.388Z" fill="#C7ABFF"/>
<path d="M60.3092 193.024L56.2411 194.909L19 188.989L22.3735 187.038L60.3092 193.024Z" fill="black"/>
<path d="M51.1477 168.616H47.8734C46.5836 168.616 45.5252 167.557 45.5252 166.267V126.976L48.1711 126.91V126.976L48.7334 165.937C48.7664 167.326 49.8248 168.45 51.1477 168.616Z" fill="black"/>
<path d="M49.8909 100.847C50.354 100.847 50.817 100.947 51.247 101.178C49.2625 102.005 47.8073 104.915 47.8073 108.388C47.8073 111.729 49.1633 114.573 51.0485 115.499C50.817 115.598 52.7022 115.797 52.4707 115.83C52.3053 115.863 50.0894 115.731 49.924 115.731C47.4104 115.731 45.3598 112.39 45.3598 108.289C45.3267 104.188 47.3773 100.847 49.8909 100.847Z" fill="black"/>
<path d="M33.1556 74.6531V74.6861L22.3735 187.038L19 188.989L29.7821 76.6375L33.1556 74.6531Z" fill="black"/>
<path d="M207.091 159.355C218.137 150.657 224.454 145.762 232.194 140.139C232.789 144.24 234.608 148.11 237.419 151.153C240.528 154.526 244.828 156.841 249.392 157.503L249.756 158.098C239.999 171.824 225.447 189.651 209.439 190.279C202.56 190.279 193.861 186.608 191.348 178.141H191.248C191.017 186.905 190.422 195.67 189.562 204.368C189.529 204.6 189.529 204.831 189.495 205.063L189.165 205.03C178.118 210.189 160.754 212.372 143.258 211.215C142.961 209.925 142.696 208.602 142.398 207.279C135.321 175.197 127.151 140.767 119.114 109.149L118.585 109.017C123.149 106.966 127.813 105.412 131.219 103.857C132.179 103.427 133.005 102.865 133.766 102.17C133.998 101.972 134.196 101.74 134.395 101.542C134.395 101.542 142.167 106.305 152.321 105.345C156.785 104.915 161.713 103.394 166.608 99.8882C167.799 100.45 169.122 100.682 170.445 100.616C174.844 100.351 180.566 98.6314 187.875 101.145C187.875 101.145 188.239 101.244 188.9 101.641C192.141 103.592 202.427 113.415 207.091 159.355Z" fill="black"/>
<path d="M289.808 137.03C293.314 135.641 296.655 133.855 299.764 131.705C300.59 131.143 301.483 130.415 301.516 129.39C301.516 128.861 301.252 128.299 300.822 128.001C300.392 127.703 298.54 128.001 298.044 128.2C298.441 127.604 299.631 126.05 299.4 125.388C299.168 124.727 298.573 124.198 297.878 123.999C297.018 123.768 296.092 124.065 295.299 124.462C292.752 125.686 290.602 127.737 289.246 130.217C288.618 131.375 288.188 132.665 288.221 133.987C288.254 135.31 288.684 136.369 289.808 137.03Z" fill="#C7ABFF"/>
<path d="M58.1925 128.497C48.7003 147.845 69.9006 154.493 74.1671 155.121C70.1321 155.188 66.1632 154.295 62.6244 152.31C59.1185 150.326 56.175 147.25 54.6536 143.513C53.0991 139.775 53.0329 135.443 54.6205 131.738C55.282 130.217 56.5718 128.795 58.1925 128.497Z" fill="white"/>
<path d="M60.7061 144.67C61.996 140.801 64.2119 137.262 67.0893 134.384C69.9667 131.507 73.5387 129.324 77.4083 128.034C76.8461 127.406 75.7547 127.009 74.8947 127.141C74.0679 127.273 73.2741 127.67 72.5465 128.067C69.3714 129.853 66.3948 132.036 64.1127 134.88C61.8637 137.692 60.7061 141.032 60.7061 144.67Z" fill="white"/>
<path d="M67.7508 146.985C68.8753 140.8 73.0095 135.244 78.599 132.367C80.1204 131.573 81.8072 130.978 83.4939 131.242C83.5601 130.349 82.7332 129.522 81.8733 129.357C81.0134 129.192 80.1204 129.489 79.3266 129.853C75.7216 131.407 72.5796 134.053 70.4628 137.361C68.3461 140.668 67.2216 144.604 67.3208 148.54" fill="white"/>
<path d="M73.1418 147.879C73.8364 145.2 75.0932 142.62 77.0114 140.602C78.9297 138.618 81.5756 137.229 84.3538 137.063C84.5854 136.435 84.3208 135.707 83.7585 135.344C83.2293 134.98 82.5017 134.914 81.8733 135.079C81.2449 135.244 80.6496 135.575 80.1204 135.972C76.2838 138.651 73.6048 143.215 73.1418 147.879Z" fill="white"/>
<path d="M130.062 120.923C128.276 120.923 126.821 119.468 126.821 117.682C126.821 115.896 128.276 114.441 130.062 114.441C131.848 114.441 133.303 115.896 133.303 117.682C133.303 119.468 131.848 120.923 130.062 120.923Z" fill="white"/>
<path d="M130.062 114.772C131.682 114.772 132.972 116.095 132.972 117.682C132.972 119.27 131.649 120.593 130.062 120.593C128.474 120.593 127.151 119.27 127.151 117.682C127.151 116.095 128.441 114.772 130.062 114.772ZM130.062 114.11C128.077 114.11 126.49 115.698 126.49 117.682C126.49 119.667 128.077 121.254 130.062 121.254C132.046 121.254 133.634 119.667 133.634 117.682C133.634 115.698 132.046 114.11 130.062 114.11Z" fill="black"/>
<path d="M176.233 115.698C174.447 115.698 172.992 114.242 172.992 112.456C172.992 110.67 174.447 109.215 176.233 109.215C178.019 109.215 179.474 110.67 179.474 112.456C179.474 114.242 178.052 115.698 176.233 115.698Z" fill="white"/>
<path d="M176.233 109.546C177.853 109.546 179.143 110.869 179.143 112.456C179.143 114.044 177.82 115.367 176.233 115.367C174.645 115.367 173.322 114.044 173.322 112.456C173.322 110.869 174.645 109.546 176.233 109.546ZM176.233 108.884C174.248 108.884 172.661 110.472 172.661 112.456C172.661 114.441 174.248 116.028 176.233 116.028C178.217 116.028 179.805 114.441 179.805 112.456C179.805 110.472 178.217 108.884 176.233 108.884Z" fill="black"/>
<path d="M133.965 132.697C132.278 132.697 130.889 131.308 130.889 129.622C130.889 127.935 132.278 126.546 133.965 126.546C135.651 126.546 137.04 127.935 137.04 129.622C137.04 131.308 135.651 132.697 133.965 132.697Z" fill="white"/>
<path d="M133.965 126.877C135.486 126.877 136.71 128.1 136.71 129.622C136.71 131.143 135.486 132.367 133.965 132.367C132.443 132.367 131.219 131.143 131.219 129.622C131.219 128.1 132.443 126.877 133.965 126.877ZM133.965 126.215C132.079 126.215 130.558 127.736 130.558 129.622C130.558 131.507 132.079 133.028 133.965 133.028C135.85 133.028 137.371 131.507 137.371 129.622C137.371 127.736 135.85 126.215 133.965 126.215Z" fill="black"/>
<path d="M182.451 183.499C180.764 183.499 179.375 182.11 179.375 180.423C179.375 178.736 180.764 177.347 182.451 177.347C184.138 177.347 185.527 178.736 185.527 180.423C185.527 182.143 184.138 183.499 182.451 183.499Z" fill="white"/>
<path d="M182.451 177.678C183.972 177.678 185.196 178.902 185.196 180.423C185.196 181.944 183.972 183.168 182.451 183.168C180.929 183.168 179.706 181.944 179.706 180.423C179.706 178.902 180.929 177.678 182.451 177.678ZM182.451 177.016C180.566 177.016 179.044 178.538 179.044 180.423C179.044 182.308 180.566 183.83 182.451 183.83C184.336 183.83 185.857 182.308 185.857 180.423C185.857 178.538 184.336 177.016 182.451 177.016Z" fill="black"/>
<path d="M182.021 196.331C180.334 196.331 178.945 194.942 178.945 193.256C178.945 191.569 180.334 190.18 182.021 190.18C183.708 190.18 185.097 191.569 185.097 193.256C185.097 194.942 183.708 196.331 182.021 196.331Z" fill="white"/>
<path d="M182.021 190.511C183.542 190.511 184.766 191.734 184.766 193.256C184.766 194.777 183.542 196.001 182.021 196.001C180.499 196.001 179.276 194.777 179.276 193.256C179.276 191.734 180.499 190.511 182.021 190.511ZM182.021 189.849C180.136 189.849 178.614 191.371 178.614 193.256C178.614 195.141 180.136 196.662 182.021 196.662C183.906 196.662 185.427 195.141 185.427 193.256C185.427 191.371 183.873 189.849 182.021 189.849Z" fill="black"/>
<path d="M137.305 145.828C137.173 145.828 137.04 145.828 136.908 145.795C136.445 145.729 136.114 145.629 135.85 145.464C135.453 145.199 135.122 144.968 134.858 144.67C134.593 144.339 134.361 143.976 134.196 143.579C134.064 143.182 133.998 142.752 133.998 142.355C134.064 140.999 135.056 139.775 136.346 139.378C136.644 139.279 136.941 139.246 137.272 139.246C137.702 139.246 138.165 139.345 138.562 139.511C139.256 139.808 139.852 140.338 140.182 141.032C140.612 141.826 140.679 142.818 140.348 143.678C140.017 144.538 139.356 145.266 138.496 145.596C138.43 145.629 138.396 145.629 138.33 145.662C138.033 145.762 137.669 145.828 137.305 145.828Z" fill="white"/>
<path d="M137.305 139.577C137.702 139.577 138.099 139.643 138.463 139.808C139.091 140.073 139.62 140.569 139.918 141.164C140.282 141.892 140.348 142.785 140.083 143.546C139.786 144.306 139.19 144.968 138.43 145.265C138.396 145.299 138.33 145.299 138.264 145.332C137.966 145.431 137.636 145.497 137.305 145.497C137.173 145.497 137.073 145.497 136.941 145.464C136.544 145.431 136.247 145.332 136.048 145.199C135.684 144.968 135.354 144.736 135.122 144.472C134.858 144.174 134.659 143.843 134.527 143.479C134.395 143.116 134.328 142.719 134.361 142.388C134.428 141.164 135.321 140.073 136.478 139.709C136.743 139.61 137.04 139.577 137.305 139.577ZM137.305 138.915C136.974 138.915 136.61 138.948 136.28 139.048C134.858 139.478 133.766 140.834 133.7 142.322C133.667 142.785 133.766 143.248 133.898 143.678C134.064 144.108 134.295 144.538 134.593 144.869C134.891 145.232 135.254 145.464 135.651 145.728C136.015 145.96 136.445 146.059 136.842 146.092C136.974 146.092 137.14 146.125 137.272 146.125C137.669 146.125 138.066 146.059 138.463 145.927C138.529 145.894 138.595 145.894 138.661 145.861C139.587 145.464 140.348 144.703 140.679 143.744C141.009 142.785 140.943 141.727 140.48 140.834C140.083 140.106 139.455 139.511 138.694 139.18C138.297 139.015 137.801 138.915 137.305 138.915Z" fill="black"/>
<path d="M182.451 169.74C182.318 169.74 182.186 169.74 182.054 169.707C181.591 169.641 181.26 169.542 180.995 169.376C180.599 169.112 180.268 168.88 180.003 168.583C179.739 168.252 179.507 167.888 179.342 167.491C179.21 167.094 179.143 166.664 179.143 166.267C179.21 164.911 180.202 163.688 181.492 163.291C181.789 163.192 182.087 163.158 182.418 163.158C182.848 163.158 183.311 163.258 183.708 163.423C184.402 163.721 184.997 164.25 185.328 164.944C185.758 165.738 185.824 166.73 185.494 167.59C185.163 168.45 184.501 169.178 183.641 169.509C183.575 169.542 183.542 169.542 183.476 169.575C183.178 169.674 182.815 169.74 182.451 169.74Z" fill="white"/>
<path d="M182.451 163.489C182.848 163.489 183.245 163.555 183.608 163.721C184.237 163.985 184.766 164.481 185.064 165.077C185.427 165.804 185.494 166.697 185.229 167.458C184.931 168.219 184.336 168.88 183.575 169.178C183.542 169.211 183.476 169.211 183.41 169.244C183.112 169.343 182.781 169.409 182.451 169.409C182.318 169.409 182.219 169.409 182.087 169.376C181.69 169.343 181.392 169.244 181.194 169.112C180.83 168.88 180.499 168.649 180.268 168.384C180.003 168.086 179.805 167.756 179.673 167.392C179.54 167.028 179.474 166.631 179.507 166.3C179.573 165.077 180.466 163.985 181.624 163.621C181.888 163.522 182.153 163.489 182.451 163.489ZM182.451 162.828C182.12 162.828 181.756 162.861 181.425 162.96C180.003 163.39 178.912 164.746 178.846 166.234C178.813 166.697 178.912 167.16 179.044 167.59C179.21 168.02 179.441 168.45 179.739 168.781C180.036 169.145 180.4 169.376 180.797 169.641C181.161 169.872 181.591 169.972 181.988 170.005C182.12 170.005 182.285 170.038 182.418 170.038C182.815 170.038 183.211 169.972 183.608 169.839C183.674 169.806 183.741 169.806 183.807 169.773C184.733 169.376 185.494 168.616 185.824 167.656C186.155 166.697 186.089 165.639 185.626 164.746C185.229 164.018 184.601 163.423 183.84 163.092C183.41 162.927 182.914 162.828 182.451 162.828Z" fill="black"/>
<path d="M140.282 158.958C139.786 158.958 139.323 158.859 138.859 158.66C138.826 158.627 138.793 158.627 138.727 158.594C138.43 158.462 138.165 158.264 137.834 157.999C137.669 157.867 137.537 157.734 137.437 157.602C137.305 157.371 137.173 157.073 137.073 156.775C136.974 156.444 136.908 156.081 136.908 155.75C136.908 155.386 136.974 155.055 137.073 154.725C137.404 153.699 138.297 152.872 139.323 152.575C139.587 152.509 139.885 152.476 140.149 152.476C140.943 152.476 141.737 152.773 142.332 153.269C143.126 153.964 143.556 155.121 143.391 156.18C143.225 157.238 142.498 158.197 141.505 158.627C141.208 158.859 140.745 158.958 140.282 158.958Z" fill="white"/>
<path d="M140.249 152.839C140.976 152.839 141.704 153.104 142.233 153.567C142.961 154.195 143.324 155.221 143.192 156.18C143.06 157.139 142.398 157.999 141.505 158.396C141.142 158.561 140.745 158.627 140.315 158.627C139.885 158.627 139.422 158.528 139.025 158.363C138.992 158.363 138.959 158.33 138.926 158.297C138.661 158.164 138.396 157.999 138.099 157.734C137.966 157.635 137.867 157.536 137.801 157.437C137.669 157.238 137.57 156.974 137.47 156.709C137.371 156.411 137.338 156.081 137.338 155.783C137.338 155.452 137.404 155.155 137.503 154.857C137.801 153.931 138.595 153.17 139.554 152.939C139.719 152.873 139.984 152.839 140.249 152.839ZM140.249 152.178C139.951 152.178 139.62 152.211 139.323 152.31C138.165 152.608 137.206 153.534 136.842 154.659C136.71 155.022 136.677 155.386 136.644 155.783C136.644 156.18 136.71 156.544 136.809 156.908C136.908 157.205 137.04 157.536 137.206 157.801C137.338 157.999 137.503 158.131 137.669 158.264C137.966 158.495 138.264 158.727 138.628 158.892C138.661 158.925 138.727 158.925 138.76 158.958C139.256 159.157 139.786 159.289 140.315 159.289C140.811 159.289 141.307 159.19 141.77 158.991C142.861 158.528 143.655 157.47 143.854 156.279C144.019 155.088 143.589 153.865 142.696 153.071C142.001 152.476 141.109 152.178 140.249 152.178Z" fill="black"/>
<path d="M178.813 129.059C178.317 129.059 177.853 128.96 177.39 128.762C177.357 128.729 177.324 128.729 177.258 128.696C176.96 128.563 176.696 128.365 176.365 128.1C176.2 127.968 176.067 127.836 175.968 127.703C175.836 127.472 175.704 127.174 175.604 126.876C175.505 126.546 175.439 126.182 175.439 125.851C175.439 125.487 175.505 125.157 175.604 124.826C175.935 123.801 176.828 122.974 177.853 122.676C178.118 122.61 178.416 122.577 178.68 122.577C179.474 122.577 180.268 122.875 180.863 123.371C181.657 124.065 182.087 125.223 181.922 126.281C181.756 127.34 181.029 128.299 180.036 128.729C179.739 128.96 179.276 129.059 178.813 129.059Z" fill="white"/>
<path d="M178.746 122.941C179.474 122.941 180.202 123.205 180.731 123.668C181.459 124.297 181.822 125.322 181.69 126.281C181.558 127.24 180.896 128.1 180.003 128.497C179.639 128.663 179.243 128.729 178.813 128.729C178.383 128.729 177.92 128.629 177.523 128.464C177.49 128.464 177.457 128.431 177.424 128.398C177.159 128.266 176.894 128.1 176.597 127.836C176.464 127.736 176.365 127.637 176.299 127.538C176.167 127.34 176.068 127.075 175.968 126.81C175.869 126.513 175.836 126.182 175.836 125.884C175.836 125.554 175.902 125.256 176.001 124.958C176.299 124.032 177.093 123.272 178.052 123.04C178.25 122.974 178.515 122.941 178.746 122.941ZM178.746 122.279C178.449 122.279 178.118 122.312 177.82 122.412C176.663 122.709 175.704 123.635 175.34 124.76C175.208 125.124 175.175 125.487 175.141 125.884C175.141 126.281 175.208 126.645 175.307 127.009C175.406 127.307 175.538 127.637 175.704 127.902C175.836 128.1 176.001 128.233 176.167 128.365C176.464 128.596 176.762 128.828 177.126 128.993C177.159 129.026 177.225 129.026 177.258 129.059C177.754 129.258 178.283 129.39 178.813 129.39C179.309 129.39 179.805 129.291 180.268 129.092C181.359 128.629 182.153 127.571 182.352 126.38C182.517 125.19 182.087 123.966 181.194 123.172C180.499 122.61 179.639 122.279 178.746 122.279Z" fill="black"/>
<path d="M143.258 172.188C142.994 172.188 142.729 172.154 142.465 172.088C142.167 172.022 141.902 171.923 141.638 171.791C141.406 171.658 141.142 171.493 140.91 171.295L140.844 171.228C140.712 171.096 140.546 170.964 140.447 170.832C140.348 170.699 140.282 170.534 140.216 170.368C140.116 170.104 140.017 169.839 139.951 169.542C139.885 169.244 139.885 168.946 139.918 168.682C139.951 168.384 140.017 168.086 140.083 167.822C140.182 167.557 140.315 167.293 140.48 167.061C140.513 166.995 140.546 166.962 140.612 166.896C141.208 166.135 142.2 165.705 143.192 165.705C143.556 165.705 143.92 165.771 144.284 165.904C145.573 166.367 146.466 167.689 146.433 169.046C146.4 170.402 145.441 171.691 144.151 172.088C143.887 172.188 143.589 172.221 143.324 172.221L143.258 172.188Z" fill="white"/>
<path d="M143.258 166.003C143.589 166.003 143.92 166.069 144.217 166.168C145.342 166.598 146.169 167.789 146.136 169.012C146.103 170.203 145.21 171.394 144.085 171.758C143.854 171.824 143.589 171.857 143.324 171.89H143.258C143.027 171.89 142.795 171.857 142.531 171.791C142.266 171.725 142.035 171.625 141.803 171.526C141.572 171.394 141.373 171.262 141.142 171.063L141.075 170.997C140.943 170.865 140.811 170.765 140.745 170.666C140.679 170.567 140.612 170.435 140.546 170.269C140.447 170.038 140.348 169.773 140.315 169.509C140.282 169.244 140.249 168.979 140.282 168.715C140.315 168.45 140.348 168.186 140.447 167.954C140.546 167.69 140.645 167.458 140.811 167.26C140.844 167.193 140.877 167.16 140.91 167.127C141.472 166.4 142.365 166.003 143.258 166.003ZM143.258 165.341C142.167 165.341 141.075 165.804 140.414 166.664C140.381 166.73 140.315 166.797 140.282 166.863C140.083 167.127 139.951 167.425 139.852 167.723C139.752 168.02 139.686 168.351 139.653 168.649C139.62 168.979 139.653 169.277 139.686 169.608C139.752 169.905 139.852 170.203 139.951 170.501C140.017 170.699 140.116 170.865 140.215 171.03C140.348 171.228 140.546 171.361 140.712 171.526C140.943 171.725 141.208 171.923 141.505 172.088C141.803 172.221 142.101 172.353 142.398 172.419C142.696 172.485 142.961 172.518 143.258 172.518C143.291 172.518 143.324 172.518 143.324 172.518C143.655 172.518 143.953 172.452 144.251 172.353C145.673 171.923 146.731 170.501 146.764 169.012C146.797 167.524 145.805 166.069 144.416 165.54C144.085 165.407 143.655 165.341 143.258 165.341Z" fill="black"/>
<path d="M180.566 142.719C180.301 142.719 180.036 142.686 179.772 142.62C179.474 142.553 179.21 142.454 178.945 142.322C178.713 142.19 178.449 142.024 178.217 141.826L178.151 141.76C178.019 141.627 177.853 141.495 177.754 141.363C177.655 141.23 177.589 141.065 177.523 140.9C177.424 140.635 177.324 140.371 177.258 140.073C177.192 139.775 177.192 139.478 177.225 139.213C177.258 138.915 177.324 138.618 177.39 138.353C177.49 138.088 177.622 137.824 177.787 137.592C177.82 137.526 177.853 137.493 177.92 137.427C178.515 136.666 179.507 136.236 180.499 136.236C180.863 136.236 181.227 136.302 181.591 136.435C182.881 136.898 183.774 138.221 183.741 139.577C183.708 140.933 182.748 142.223 181.459 142.62C181.194 142.719 180.896 142.752 180.632 142.752L180.566 142.719Z" fill="white"/>
<path d="M180.566 136.534C180.896 136.534 181.227 136.6 181.525 136.699C182.649 137.129 183.476 138.32 183.443 139.544C183.41 140.734 182.517 141.925 181.392 142.289C181.161 142.355 180.896 142.388 180.632 142.421H180.566C180.334 142.421 180.102 142.388 179.838 142.322C179.573 142.256 179.342 142.157 179.11 142.057C178.879 141.925 178.68 141.793 178.449 141.594L178.383 141.528C178.25 141.396 178.118 141.297 178.052 141.197C177.986 141.098 177.92 140.966 177.853 140.801C177.754 140.569 177.655 140.304 177.622 140.04C177.589 139.775 177.556 139.511 177.589 139.246C177.622 138.982 177.655 138.717 177.754 138.485C177.853 138.221 177.953 137.989 178.118 137.791C178.151 137.725 178.184 137.692 178.217 137.659C178.78 136.964 179.673 136.534 180.566 136.534ZM180.566 135.873C179.474 135.873 178.383 136.336 177.721 137.196C177.688 137.262 177.622 137.328 177.589 137.394C177.39 137.659 177.258 137.956 177.159 138.254C177.06 138.552 176.994 138.882 176.96 139.18C176.927 139.511 176.96 139.808 176.994 140.139C177.06 140.437 177.159 140.734 177.258 141.032C177.324 141.231 177.424 141.396 177.523 141.561C177.655 141.76 177.853 141.892 178.019 142.057C178.25 142.256 178.515 142.454 178.813 142.62C179.11 142.752 179.408 142.884 179.706 142.95C180.003 143.017 180.268 143.05 180.566 143.05C180.599 143.05 180.632 143.05 180.632 143.05C180.962 143.05 181.26 142.983 181.558 142.884C182.98 142.454 184.038 141.032 184.071 139.544C184.104 138.055 183.112 136.6 181.723 136.071C181.392 135.939 180.962 135.873 180.566 135.873Z" fill="black"/>
<path d="M146.103 185.285C145.772 185.285 145.441 185.252 145.143 185.153C145.11 185.153 145.044 185.119 145.011 185.119C144.647 184.987 144.284 184.789 143.986 184.524C143.688 184.26 143.424 183.962 143.225 183.598C143.126 183.433 143.027 183.267 142.994 183.135C142.994 183.069 142.961 182.97 142.961 182.904C142.961 182.804 142.928 182.705 142.928 182.606C142.828 182.209 142.861 181.779 142.961 181.349C143.06 180.919 143.225 180.522 143.49 180.191C144.085 179.398 145.044 178.902 146.103 178.835C146.169 178.835 146.235 178.835 146.301 178.835C146.731 178.835 147.161 178.902 147.525 179.067C148.55 179.464 149.344 180.489 149.476 181.581C149.608 182.672 149.145 183.863 148.252 184.557C147.624 185.02 146.863 185.285 146.103 185.285Z" fill="white"/>
<path d="M146.268 179.166C146.665 179.166 147.029 179.232 147.359 179.365C148.286 179.728 148.98 180.621 149.112 181.614C149.245 182.606 148.815 183.664 148.021 184.293C147.492 184.723 146.797 184.954 146.103 184.954C145.805 184.954 145.507 184.921 145.243 184.822C145.21 184.822 145.144 184.789 145.11 184.789C144.78 184.656 144.449 184.491 144.184 184.259C143.887 184.028 143.655 183.73 143.49 183.433C143.424 183.333 143.324 183.168 143.324 183.069C143.324 183.003 143.291 182.937 143.291 182.87C143.291 182.771 143.258 182.672 143.258 182.54C143.192 182.176 143.192 181.812 143.291 181.415C143.391 181.051 143.556 180.688 143.754 180.39C144.284 179.695 145.177 179.232 146.103 179.166C146.136 179.166 146.202 179.166 146.268 179.166ZM146.268 178.505C146.202 178.505 146.103 178.505 146.037 178.505C144.945 178.571 143.854 179.1 143.192 179.993C142.894 180.357 142.696 180.82 142.597 181.283C142.498 181.746 142.465 182.209 142.564 182.672C142.597 182.837 142.597 183.036 142.63 183.201C142.663 183.4 142.795 183.598 142.894 183.763C143.126 184.127 143.391 184.491 143.754 184.756C144.085 185.053 144.482 185.252 144.879 185.417C144.945 185.45 144.978 185.45 145.044 185.483C145.375 185.582 145.739 185.649 146.103 185.649C146.929 185.649 147.789 185.351 148.451 184.855C149.41 184.094 149.939 182.804 149.774 181.58C149.608 180.357 148.749 179.232 147.624 178.802C147.194 178.571 146.731 178.505 146.268 178.505Z" fill="black"/>
<path d="M181.955 156.312C181.624 156.312 181.293 156.279 180.995 156.18C180.962 156.18 180.896 156.147 180.863 156.147C180.499 156.015 180.136 155.816 179.838 155.551C179.54 155.287 179.276 154.989 179.077 154.625C178.978 154.46 178.879 154.295 178.846 154.162C178.846 154.096 178.813 153.997 178.813 153.931C178.813 153.832 178.78 153.732 178.78 153.633C178.68 153.236 178.713 152.806 178.813 152.376C178.912 151.946 179.077 151.55 179.342 151.219C179.937 150.425 180.896 149.929 181.955 149.863C182.021 149.863 182.087 149.863 182.153 149.863C182.583 149.863 183.013 149.929 183.377 150.094C184.402 150.491 185.196 151.516 185.328 152.608C185.46 153.699 184.997 154.89 184.104 155.585C183.476 156.048 182.715 156.312 181.955 156.312Z" fill="white"/>
<path d="M182.12 150.193C182.517 150.193 182.881 150.26 183.211 150.392C184.138 150.756 184.832 151.649 184.964 152.641C185.097 153.633 184.667 154.691 183.873 155.32C183.344 155.75 182.649 155.981 181.955 155.981C181.657 155.981 181.359 155.948 181.095 155.849C181.062 155.849 180.996 155.816 180.962 155.816C180.632 155.684 180.301 155.518 180.036 155.287C179.739 155.055 179.507 154.758 179.342 154.46C179.276 154.361 179.176 154.195 179.176 154.096C179.176 154.03 179.143 153.964 179.143 153.898C179.143 153.798 179.11 153.699 179.11 153.567C179.044 153.203 179.044 152.839 179.143 152.442C179.243 152.079 179.408 151.715 179.606 151.417C180.136 150.723 181.029 150.26 181.955 150.193C181.988 150.193 182.054 150.193 182.12 150.193ZM182.12 149.532C182.054 149.532 181.955 149.532 181.888 149.532C180.797 149.598 179.706 150.127 179.044 151.02C178.746 151.384 178.548 151.847 178.449 152.31C178.35 152.773 178.317 153.236 178.416 153.699C178.449 153.865 178.449 154.063 178.482 154.228C178.515 154.427 178.647 154.625 178.746 154.791C178.978 155.155 179.243 155.518 179.606 155.783C179.937 156.081 180.334 156.279 180.731 156.444C180.797 156.477 180.83 156.477 180.896 156.511C181.227 156.61 181.591 156.676 181.955 156.676C182.781 156.676 183.641 156.378 184.303 155.882C185.262 155.121 185.791 153.832 185.626 152.608C185.46 151.384 184.601 150.26 183.476 149.83C183.046 149.631 182.583 149.532 182.12 149.532Z" fill="black"/>
<path d="M148.55 198.382C148.186 198.382 147.822 198.316 147.459 198.217C147.426 198.217 147.359 198.184 147.326 198.184C146.996 198.051 146.665 197.853 146.367 197.621C146.07 197.39 145.838 197.125 145.673 196.894C145.607 196.761 145.54 196.596 145.507 196.398L145.474 196.232C145.342 195.769 145.309 195.372 145.342 195.042C145.375 194.645 145.441 194.248 145.607 193.884C146.003 192.991 146.83 192.263 147.789 191.999C148.054 191.933 148.352 191.9 148.616 191.9C149.344 191.9 150.038 192.131 150.601 192.528C151.196 192.958 151.659 193.619 151.824 194.347C152.056 195.24 151.857 196.232 151.328 196.993C150.998 197.456 150.535 197.82 150.038 198.051C149.575 198.25 149.046 198.382 148.55 198.382Z" fill="white"/>
<path d="M148.616 192.23C149.278 192.23 149.906 192.429 150.402 192.793C150.931 193.189 151.328 193.785 151.494 194.413C151.692 195.207 151.527 196.133 151.031 196.795C150.733 197.191 150.336 197.522 149.873 197.754C149.476 197.952 149.013 198.051 148.55 198.051C148.219 198.051 147.889 197.985 147.558 197.886C147.525 197.886 147.492 197.853 147.426 197.853C147.128 197.721 146.83 197.555 146.566 197.357C146.301 197.125 146.07 196.927 145.937 196.695C145.871 196.596 145.838 196.464 145.805 196.298C145.805 196.232 145.772 196.199 145.772 196.133C145.673 195.703 145.607 195.339 145.64 195.042C145.673 194.678 145.739 194.314 145.871 194.016C146.235 193.189 146.963 192.561 147.822 192.33C148.087 192.263 148.352 192.23 148.616 192.23ZM148.616 191.569C148.319 191.569 147.988 191.602 147.69 191.701C146.632 191.999 145.739 192.759 145.309 193.752C145.143 194.149 145.044 194.579 145.011 195.009C144.978 195.438 145.077 195.868 145.177 196.298C145.243 196.563 145.276 196.795 145.408 197.026C145.607 197.357 145.871 197.621 146.169 197.853C146.5 198.117 146.83 198.316 147.227 198.448C147.26 198.481 147.326 198.481 147.359 198.514C147.756 198.647 148.153 198.713 148.55 198.713C149.112 198.713 149.642 198.58 150.171 198.349C150.733 198.084 151.229 197.688 151.593 197.191C152.188 196.365 152.42 195.24 152.155 194.248C151.957 193.454 151.461 192.726 150.799 192.263C150.171 191.8 149.377 191.569 148.616 191.569Z" fill="black"/>
<path d="M117.262 37.5773L121.099 51.3029C121.099 51.3029 129.93 44.655 142.431 46.1103C154.933 47.5655 164.227 51.9313 164.227 51.9313L164.723 37.7426C164.723 37.7426 149.112 29.1434 139.025 30.3341C128.937 31.5247 120.272 32.5831 117.262 37.5773Z" fill="black"/>
<path d="M213.242 79.2502L258.984 36.155L348.647 68.9973" stroke="white" stroke-width="1.2" stroke-miterlimit="10" stroke-linecap="round" stroke-linejoin="round"/>
<path d="M258.984 36.155L263.713 92.1159" stroke="white" stroke-width="1.2" stroke-miterlimit="10" stroke-linecap="round" stroke-linejoin="round"/>
<path d="M125.432 54.1802C125.432 56.8592 125.729 92.3804 144.383 92.3804C152.717 92.3804 156.157 84.145 156.157 84.145" stroke="black" stroke-width="1.2" stroke-miterlimit="10" stroke-linecap="round" stroke-linejoin="round"/>
<path d="M122.356 55.7349C122.455 56.0656 122.521 56.264 122.521 56.264" stroke="black" stroke-width="1.2" stroke-miterlimit="10" stroke-linecap="round" stroke-linejoin="round"/>
<path d="M164.128 56.7269C164.128 51.9643 164.789 36.155 164.922 33.013C164.922 32.6822 164.756 32.3515 164.492 32.1861C160.953 30.0033 138.132 17.1045 116.237 31.2931C115.906 31.5247 115.741 31.9215 115.84 32.3184C117.791 39.6939 121.562 52.9234 122.356 55.7347" stroke="black" stroke-width="1.2" stroke-miterlimit="10" stroke-linecap="round" stroke-linejoin="round"/>
<path d="M117.196 36.6511C138.463 23.2562 160.49 35.1297 164.723 37.6764" stroke="black" stroke-width="1.2" stroke-miterlimit="10" stroke-linecap="round" stroke-linejoin="round"/>
<path d="M121.099 51.3029C138.926 41.2154 156.918 48.194 164.227 51.8983" stroke="black" stroke-width="1.2" stroke-miterlimit="10" stroke-linecap="round" stroke-linejoin="round"/>
<path d="M122.455 56.0325C122.455 56.0325 122.753 64.8963 126.093 66.8807" stroke="black" stroke-width="1.2" stroke-miterlimit="10" stroke-linecap="round" stroke-linejoin="round"/>
<path d="M126.523 67.6081C126.523 67.6081 124.572 65.8552 123.017 67.4758C121.562 69.0303 123.414 75.4797 128.408 76.1742" stroke="black" stroke-width="1.2" stroke-miterlimit="10" stroke-linecap="round" stroke-linejoin="round"/>
<path d="M161.416 75.7114C160.854 79.6141 159.729 90.0985 163.003 96.4156C164.426 99.1608 167.369 100.781 170.445 100.583C174.844 100.318 180.566 98.5985 187.875 101.112C187.875 101.112 201.501 104.353 207.091 159.322" stroke="black" stroke-width="1.2" stroke-miterlimit="10" stroke-linecap="round" stroke-linejoin="round"/>
<path d="M136.379 89.6023C136.379 89.6023 136.809 92.5128 136.71 95.5556C136.61 99.1606 134.461 102.402 131.186 103.857C122.786 107.661 106.844 111.53 103.272 122.577C99.667 132.499 100.957 148.374 100.957 148.374" stroke="black" stroke-width="1.2" stroke-miterlimit="10" stroke-linecap="round" stroke-linejoin="round"/>
<path d="M136.71 98.0029C136.71 98.0029 150.369 100.947 156.157 84.145" stroke="black" stroke-width="1.2" stroke-miterlimit="10" stroke-linecap="round" stroke-linejoin="round"/>
<path d="M133.733 102.203C133.502 101.972 132.774 100.55 132.774 100.55C132.774 100.55 108.101 108.752 104.364 115.268C103.007 117.285 104.264 120.262 104.264 120.262" stroke="black" stroke-width="1.2" stroke-miterlimit="10" stroke-linecap="round" stroke-linejoin="round"/>
<path d="M164.227 98.2014L164.889 96.647C164.889 96.647 187.246 96.7131 188.9 101.542" stroke="black" stroke-width="1.2" stroke-miterlimit="10" stroke-linecap="round" stroke-linejoin="round"/>
<path d="M162.673 95.8203C162.673 95.8203 154.9 103.13 136.71 98.0032" stroke="black" stroke-width="1.2" stroke-miterlimit="10" stroke-linecap="round" stroke-linejoin="round"/>
<path d="M134.361 101.542C134.361 101.542 150.468 111.398 166.575 99.8882" stroke="black" stroke-width="1.2" stroke-miterlimit="10" stroke-linecap="round" stroke-linejoin="round"/>
<path d="M158.34 54.1802L160.391 64.8961C160.754 66.5498 161.35 66.7813 161.515 66.8474" stroke="black" stroke-width="1.2" stroke-miterlimit="10" stroke-linecap="round" stroke-linejoin="round"/>
<path d="M164.128 56.7271L163.003 64.6317" stroke="black" stroke-width="1.2" stroke-miterlimit="10" stroke-linecap="round" stroke-linejoin="round"/>
<path d="M161.482 66.8476C161.978 65.7892 162.64 64.7639 163.632 64.1355C164.624 63.5071 165.947 63.2756 166.939 63.8709C168.097 64.5655 168.494 66.0869 168.461 67.4429C168.427 69.4273 167.667 71.4117 166.344 72.9331C165.087 74.3884 163.301 75.4137 161.383 75.7775" stroke="black" stroke-width="1.2" stroke-miterlimit="10" stroke-linecap="round" stroke-linejoin="round"/>
<path d="M138.529 69.5267C138.529 69.5267 136.809 65.2932 139.124 64.1687C141.472 63.0442 143.291 66.4177 143.291 66.4177" stroke="black" stroke-width="1.2" stroke-miterlimit="10" stroke-linecap="round" stroke-linejoin="round"/>
<path d="M153.346 70.684C150.204 68.5342 145.97 68.0712 142.465 69.4934C138.926 70.9155 136.18 74.1237 135.387 77.861C138.43 76.7035 141.108 74.6198 142.861 71.8747C146.268 72.9992 150.237 72.47 153.346 70.684Z" fill="black" stroke="black" stroke-width="1.2" stroke-miterlimit="10" stroke-linecap="round" stroke-linejoin="round"/>
<path d="M142.134 76.4719C143.391 75.9758 144.449 74.9836 145.077 73.793" stroke="black" stroke-width="1.2" stroke-miterlimit="10" stroke-linecap="round" stroke-linejoin="round"/>
<path d="M283.59 141.231C284.616 140.536 285.806 139.808 287.063 139.081C293.612 135.277 302.277 131.275 301.748 129.489C301.252 127.703 298.54 128.53 297.614 128.861" stroke="black" stroke-width="1.2" stroke-miterlimit="10" stroke-linecap="round" stroke-linejoin="round"/>
<path d="M287.493 130.779C287.493 130.779 295.596 123.238 298.474 124.627C301.351 126.016 289.081 140.007 280.548 142.52C272.015 145.034 265.896 139.709 261.166 142.52C256.437 145.332 234.707 189.287 209.439 190.279C202.56 190.279 193.861 186.608 191.348 178.141" stroke="black" stroke-width="1.2" stroke-miterlimit="10" stroke-linecap="round" stroke-linejoin="round"/>
<path d="M202.692 162.828C218.534 150.293 225.314 145.067 236.063 137.361C243.141 132.267 249.293 130.25 257.892 128.861C261.563 128.266 266.359 127.836 270.229 127.373" stroke="black" stroke-width="1.2" stroke-miterlimit="10" stroke-linecap="round" stroke-linejoin="round"/>
<path d="M202.692 162.828C211.324 154.824 217.41 149.334 222.999 145.1" stroke="#C7ABFF" stroke-width="1.2" stroke-miterlimit="10" stroke-linecap="round" stroke-linejoin="round"/>
<path d="M270.196 127.373C271.419 126.05 272.676 124.727 273.9 123.437C275.421 121.816 276.943 120.195 278.464 118.575C278.795 118.211 279.159 117.847 279.589 117.616C280.018 117.384 280.581 117.318 281.011 117.55C281.441 117.781 281.672 118.277 281.738 118.773C281.771 119.269 281.672 119.732 281.54 120.229C279.985 125.884 276.38 130.978 271.552 134.351" stroke="black" stroke-width="1.2" stroke-miterlimit="10" stroke-linecap="round" stroke-linejoin="round"/>
<path d="M275.223 131.176C276.777 131.441 278.365 130.878 279.622 129.919C279.886 129.721 280.151 129.489 280.382 129.258C281.242 128.398 281.871 127.372 282.4 126.314C282.731 125.653 282.995 124.958 283.26 124.297C283.954 122.478 284.55 120.625 285.509 118.939C285.873 118.277 286.501 117.583 287.229 117.781C287.758 117.946 288.022 118.542 288.188 119.104C288.816 121.221 288.981 123.47 288.75 125.686C288.618 126.843 288.386 128.001 288.022 129.092C287.791 129.853 287.46 130.581 287.129 131.275C285.277 135.013 282.003 138.022 278.1 139.511" stroke="black" stroke-width="1.2" stroke-miterlimit="10" stroke-linecap="round" stroke-linejoin="round"/>
<path d="M239.569 135.112C239.933 138.915 241.554 142.553 244.067 145.398C246.614 148.242 250.087 150.227 253.791 151.02" stroke="black" stroke-width="1.2" stroke-miterlimit="10" stroke-linecap="round" stroke-linejoin="round"/>
<path d="M232.194 140.139C232.756 144.24 234.608 148.143 237.419 151.153C240.528 154.526 244.828 156.808 249.392 157.503" stroke="black" stroke-width="1.2" stroke-miterlimit="10" stroke-linecap="round" stroke-linejoin="round"/>
<path d="M150.138 243.395C157.249 242.006 164.062 239.261 170.147 235.325" stroke="#C7ABFF" stroke-width="1.2" stroke-miterlimit="10" stroke-linecap="round" stroke-linejoin="round"/>
<path d="M81.6087 144.77C83.064 144.902 84.42 145.729 85.1807 146.952" stroke="black" stroke-width="1.2" stroke-miterlimit="10" stroke-linecap="round" stroke-linejoin="round"/>
<path d="M81.4433 149.4C81.0134 145.828 81.7741 142.157 83.5601 139.048C84.1554 138.022 84.883 136.699 84.1885 135.707C83.7916 135.112 82.9978 134.913 82.3033 135.013C81.6087 135.112 80.9803 135.476 80.385 135.873C76.2508 138.651 73.4395 143.281 72.8772 148.209" stroke="black" stroke-width="1.2" stroke-miterlimit="10" stroke-linecap="round" stroke-linejoin="round"/>
<path d="M80.7488 135.641C82.0056 134.715 82.9317 133.392 83.3947 131.904C83.5931 131.242 83.6924 130.448 83.2955 129.886C82.9978 129.456 82.4356 129.291 81.9064 129.291C81.3772 129.291 80.8811 129.456 80.385 129.622C76.6146 131.044 73.2741 133.623 70.992 136.931C68.6769 140.238 67.4201 144.24 67.4201 148.275" stroke="black" stroke-width="1.2" stroke-miterlimit="10" stroke-linecap="round" stroke-linejoin="round"/>
<path d="M74.7294 132.863C75.457 131.771 76.1515 130.68 76.8792 129.622C77.1438 129.225 77.4083 128.795 77.3753 128.332C77.3422 127.604 76.6146 127.108 75.92 127.042C75.1924 126.976 74.5309 127.273 73.8694 127.571C72.1827 128.365 70.5621 129.324 69.0407 130.415C68.1146 131.11 67.2216 131.837 66.3948 132.631C66.031 132.995 65.6341 133.359 65.3033 133.756C65.0718 134.02 64.8072 134.318 64.5757 134.583C62.0952 137.625 60.4746 141.396 60.3753 145.332" stroke="black" stroke-width="1.2" stroke-miterlimit="10" stroke-linecap="round" stroke-linejoin="round"/>
<path d="M83.0309 133.954C99.9978 144.24 113.293 160.446 120.107 179.1" stroke="black" stroke-width="1.2" stroke-miterlimit="10" stroke-linecap="round" stroke-linejoin="round"/>
<path d="M97.7487 143.347C107.638 153.468 115.377 166.267 120.074 179.1" stroke="#C7ABFF" stroke-width="1.2" stroke-miterlimit="10" stroke-linecap="round" stroke-linejoin="round"/>
<path d="M60.8053 140.205C59.9454 137.857 59.6146 135.31 59.8792 132.797C59.9784 131.97 60.1107 131.176 59.9454 130.349C59.8131 129.555 59.2839 128.729 58.4571 128.497C57.7625 128.299 56.9687 128.563 56.4065 129.026C55.8442 129.489 55.4804 130.118 55.1827 130.746C52.5699 136.104 53.2645 142.785 56.9357 147.515C60.0446 151.583 65.0387 154.096 70.1983 155.055C78.9959 156.676 85.1476 154.361 88.7857 153.203" stroke="black" stroke-width="1.2" stroke-miterlimit="10" stroke-linecap="round" stroke-linejoin="round"/>
<path d="M78.0698 156.081C81.2118 163.423 85.0153 170.468 89.4472 177.115C92.1262 181.117 95.1028 185.053 98.9394 187.931C106.811 194.678 117.825 196.265 122.852 191.238" stroke="black" stroke-width="1.2" stroke-miterlimit="10" stroke-linecap="round" stroke-linejoin="round"/>
<path d="M79.029 158.164C80.9472 161.108 84.3208 162.96 87.7935 163.324C91.2993 163.688 94.8713 162.563 97.6826 160.48C100.527 158.396 102.611 155.419 103.9 152.145" stroke="black" stroke-width="1.2" stroke-miterlimit="10" stroke-linecap="round" stroke-linejoin="round"/>
<path d="M81.741 155.287C85.1807 156.213 88.918 155.882 92.1262 154.361C95.3344 152.839 97.9803 150.127 99.4024 146.853" stroke="black" stroke-width="1.2" stroke-miterlimit="10" stroke-linecap="round" stroke-linejoin="round"/>
<path d="M295.729 124.925H295.365L288.75 125.62" stroke="black" stroke-width="1.2" stroke-miterlimit="10" stroke-linecap="round" stroke-linejoin="round"/>
<path d="M282.433 126.314L278.729 126.678" stroke="black" stroke-width="1.2" stroke-miterlimit="10" stroke-linecap="round" stroke-linejoin="round"/>
<path d="M257.76 128.861L225.777 132.267C222.867 132.565 220.254 130.515 219.857 127.637L215.458 95.5556L213.242 79.2502L205.47 22.2971C205.371 21.6025 205.404 20.941 205.569 20.3457C205.702 19.8165 205.9 19.3204 206.165 18.8905C207.025 17.4021 208.612 16.3438 210.464 16.2115L342.429 7.67844C345.405 7.48 347.985 9.72902 348.184 12.7057L348.647 68.9973L349.01 114.143C349.143 116.293 348.018 118.211 346.265 119.203C346.265 119.203 346.232 119.203 346.199 119.236C345.604 119.567 344.909 119.766 344.182 119.865L298.639 124.76" stroke="black" stroke-width="1.2" stroke-miterlimit="10" stroke-linecap="round" stroke-linejoin="round"/>
<path d="M206.165 18.8574L205.569 20.3127L202.427 28.2173C201.667 30.334 201.071 31.4585 201.336 33.2115L215.26 131.441C215.657 134.285 218.27 136.303 221.147 136.005L240.694 133.954" stroke="black" stroke-width="1.2" stroke-miterlimit="10" stroke-linecap="round" stroke-linejoin="round"/>
<path d="M288.022 129.026L289.742 128.861" stroke="black" stroke-width="1.2" stroke-miterlimit="10" stroke-linecap="round" stroke-linejoin="round"/>
<path d="M346.265 119.17C346.265 119.17 346.232 119.17 346.199 119.203C345.769 119.435 343.355 120.857 340.279 122.577C338.989 123.304 337.534 123.767 336.046 123.933L297.911 127.935" stroke="black" stroke-width="1.2" stroke-miterlimit="10" stroke-linecap="round" stroke-linejoin="round"/>
<path d="M279.622 129.919L276.05 130.283" stroke="black" stroke-width="1.2" stroke-miterlimit="10" stroke-linecap="round" stroke-linejoin="round"/>
<path d="M207.091 34.0384L348.283 23.7524" stroke="black" stroke-width="1.2" stroke-miterlimit="10" stroke-linecap="round" stroke-linejoin="round"/>
<path d="M219.527 28.8298C221.772 27.075 222.042 23.6691 220.13 21.2225C218.218 18.7759 214.848 18.215 212.602 19.9697C210.357 21.7245 210.087 25.1304 212 27.577C213.912 30.0236 217.282 30.5845 219.527 28.8298Z" fill="white" stroke="black" stroke-width="1.2" stroke-miterlimit="10" stroke-linecap="round" stroke-linejoin="round"/>
<path d="M234.054 27.8039C236.299 26.0491 236.569 22.6433 234.657 20.1966C232.745 17.75 229.374 17.1891 227.129 18.9439C224.884 20.6986 224.614 24.1045 226.526 26.5511C228.439 28.9977 231.809 29.5586 234.054 27.8039Z" stroke="black" stroke-width="1.2" stroke-miterlimit="10" stroke-linecap="round" stroke-linejoin="round"/>
<path d="M248.289 26.7333C250.535 24.9786 250.804 21.5727 248.892 19.1261C246.98 16.6795 243.61 16.1186 241.365 17.8733C239.12 19.628 238.85 23.0339 240.762 25.4805C242.674 27.9272 246.044 28.4881 248.289 26.7333Z" stroke="black" stroke-width="1.2" stroke-miterlimit="10" stroke-linecap="round" stroke-linejoin="round"/>
<path d="M151.593 99.8882C151.428 100.318 151.758 104.485 152.287 105.345" stroke="black" stroke-width="1.2" stroke-miterlimit="10" stroke-linecap="round" stroke-linejoin="round"/>
<path d="M306.511 78.3241C305.452 78.4233 304.625 79.3494 304.658 80.4078L304.989 89.2054L305.551 104.552C305.585 105.709 306.61 106.602 307.767 106.503L336.145 103.758C337.203 103.659 337.997 102.766 337.964 101.707L337.699 86.9564L337.534 77.7949C337.501 76.6374 336.509 75.7113 335.351 75.8105L306.511 78.3241Z" stroke="#C7ABFF" stroke-width="1.2" stroke-miterlimit="10" stroke-linecap="round" stroke-linejoin="round"/>
<path d="M259.976 111.166L232.425 113.878C231.168 114.011 230.044 113.085 229.879 111.828L227.894 94.6626L227.1 87.7171C226.935 86.4272 227.894 85.2366 229.217 85.1374L257.793 82.6238C259.083 82.5245 260.207 83.4837 260.306 84.7735L262.059 108.719C262.159 109.943 261.233 111.067 259.976 111.166Z" stroke="#C7ABFF" stroke-width="1.2" stroke-miterlimit="10" stroke-linecap="round" stroke-linejoin="round"/>
<path d="M234.344 59.472L324.139 52.5596" stroke="black" stroke-width="1.2" stroke-miterlimit="10"/>
<path d="M258.587 67.6413L299.896 64.4331" stroke="black" stroke-width="1.2" stroke-miterlimit="10"/>
<path d="M270.758 110.108L297.217 107.528C298.771 107.363 299.896 106.04 299.83 104.486L299.168 89.6024L298.837 82.0285C298.771 80.3748 297.316 79.118 295.662 79.2503L268.377 81.6647C266.789 81.797 265.598 83.2191 265.731 84.8067L266.293 91.9506L267.517 107.462C267.715 109.083 269.137 110.274 270.758 110.108Z" stroke="#C7ABFF" stroke-width="1.2" stroke-miterlimit="10" stroke-linecap="round" stroke-linejoin="round"/>
<path d="M244.299 99.7561C247.093 99.7561 249.359 97.4905 249.359 94.6958C249.359 91.9011 247.093 89.6355 244.299 89.6355C241.504 89.6355 239.238 91.9011 239.238 94.6958C239.238 97.4905 241.504 99.7561 244.299 99.7561Z" stroke="black" stroke-width="1.2" stroke-miterlimit="10" stroke-linecap="round" stroke-linejoin="round"/>
<path d="M244.828 99.7229L245.523 107.528L248.598 107.231" stroke="black" stroke-width="1.2" stroke-miterlimit="10" stroke-linecap="round" stroke-linejoin="round"/>
<path d="M245.291 104.32L247.639 104.122" stroke="black" stroke-width="1.2" stroke-miterlimit="10" stroke-linecap="round" stroke-linejoin="round"/>
<path d="M281.441 96.2832C284.235 96.2832 286.501 94.0176 286.501 91.2229C286.501 88.4282 284.235 86.1626 281.441 86.1626C278.646 86.1626 276.38 88.4282 276.38 91.2229C276.38 94.0176 278.646 96.2832 281.441 96.2832Z" stroke="black" stroke-width="1.2" stroke-miterlimit="10" stroke-linecap="round" stroke-linejoin="round"/>
<path d="M281.97 96.217L282.664 104.022L285.74 103.758" stroke="black" stroke-width="1.2" stroke-miterlimit="10" stroke-linecap="round" stroke-linejoin="round"/>
<path d="M282.433 100.847L284.781 100.616" stroke="black" stroke-width="1.2" stroke-miterlimit="10" stroke-linecap="round" stroke-linejoin="round"/>
<path d="M323.768 91.203C325.846 89.1995 326.019 86.0086 324.155 84.0758C322.291 82.143 319.096 82.2004 317.018 84.2039C314.941 86.2074 314.768 89.3984 316.632 91.3311C318.496 93.2639 321.691 93.2065 323.768 91.203Z" stroke="black" stroke-width="1.2" stroke-miterlimit="10" stroke-linecap="round" stroke-linejoin="round"/>
<path d="M320.567 92.7444L320.666 100.55L323.775 100.285" stroke="black" stroke-width="1.2" stroke-miterlimit="10" stroke-linecap="round" stroke-linejoin="round"/>
<path d="M320.699 97.3746L323.048 97.1431" stroke="black" stroke-width="1.2" stroke-miterlimit="10" stroke-linecap="round" stroke-linejoin="round"/>
<path d="M65.2703 153.633L60.3092 193.024L22.3735 187.038L33.1887 74.686L40.7295 79.581C40.7295 79.581 46.0544 71.7755 54.0913 76.439C63.9473 82.1607 64.3442 94.9603 64.3442 94.9603L70.7274 99.1276L68.1146 125.421" stroke="black" stroke-width="1.2" stroke-miterlimit="10" stroke-linecap="round" stroke-linejoin="round"/>
<path d="M60.0115 150.623L56.9026 182.077C54.3559 181.68 52.7684 183.664 52.5038 186.244L32.5272 183.003C32.7587 180.621 31.105 178.505 28.7568 178.108L37.7859 84.2113L42.2509 87.2872C42.2509 87.2872 45.0291 79.8456 50.1886 80.4409C51.1147 80.5401 51.9746 80.937 52.7353 81.4992C58.6555 85.9973 58.8539 97.9039 58.8539 97.9039L61.2683 99.4914L64.8403 101.807L62.4921 125.454" stroke="black" stroke-width="1.2" stroke-miterlimit="10" stroke-linecap="round" stroke-linejoin="round"/>
<path d="M33.1556 74.686L29.7821 76.6374L19 188.989L56.2411 194.909L60.3092 193.024" stroke="black" stroke-width="1.2" stroke-miterlimit="10" stroke-linecap="round" stroke-linejoin="round"/>
<path d="M22.3735 187.038L19 188.989" stroke="black" stroke-width="1.2" stroke-miterlimit="10" stroke-linecap="round" stroke-linejoin="round"/>
<path d="M48.1711 126.976L48.7334 165.937C48.7664 167.524 50.0894 168.748 51.6769 168.616C53.0991 168.516 54.2236 167.326 54.1905 165.87L54.0252 141.23" stroke="black" stroke-width="1.2" stroke-miterlimit="10" stroke-linecap="round" stroke-linejoin="round"/>
<path d="M51.1477 126.81L45.5252 126.976V166.267C45.5252 167.557 46.5836 168.616 47.8734 168.616H51.1808" stroke="black" stroke-width="1.2" stroke-miterlimit="10" stroke-linecap="round" stroke-linejoin="round"/>
<path d="M65.3033 133.723C64.1457 133.161 63.385 131.474 63.5173 129.522C63.6827 127.174 65.1049 125.322 66.6924 125.388C66.8909 125.388 67.0893 125.421 67.2547 125.52C68.5115 125.984 69.3714 127.77 69.2391 129.82C69.2391 129.985 69.206 130.151 69.173 130.316" stroke="black" stroke-width="1.2" stroke-miterlimit="10" stroke-linecap="round" stroke-linejoin="round"/>
<path d="M56.9357 108.388C56.9357 112.489 54.8851 115.83 52.3715 115.83C51.9084 115.83 51.4454 115.731 51.0154 115.499C49.1302 114.573 47.7742 111.729 47.7742 108.388C47.7742 104.915 49.2295 102.005 51.2139 101.178C51.5777 101.013 51.9415 100.947 52.3384 100.947C54.8851 100.947 56.9357 104.287 56.9357 108.388Z" stroke="black" stroke-width="1.2" stroke-miterlimit="10" stroke-linecap="round" stroke-linejoin="round"/>
<path d="M51.0154 115.499C50.817 115.565 51.6438 115.83 52.5699 115.83C52.4045 115.863 50.0563 115.731 49.8909 115.731C47.3773 115.731 45.3268 112.39 45.3268 108.289C45.3268 104.188 47.3773 100.847 49.8909 100.847C50.354 100.847 50.817 100.947 51.247 101.178C49.2625 102.005 47.8073 104.915 47.8073 108.388C47.7742 111.729 49.1302 114.573 51.0154 115.499Z" stroke="black" stroke-width="1.2" stroke-miterlimit="10" stroke-linecap="round" stroke-linejoin="round"/>
<path d="M54.0252 134.153H53.959C51.6769 134.153 49.8579 132.268 49.9902 129.986C49.9902 129.952 49.9902 129.952 49.9902 129.919C50.1555 127.571 51.5777 125.719 53.1652 125.785L66.6924 125.355" stroke="black" stroke-width="1.2" stroke-miterlimit="10" stroke-linecap="round" stroke-linejoin="round"/>
<path d="M64.8734 133.954L59.8131 134.054" stroke="black" stroke-width="1.2" stroke-miterlimit="10" stroke-linecap="round" stroke-linejoin="round"/>
<mask id="mask0" mask-type="alpha" maskUnits="userSpaceOnUse" x="31" y="2" width="270" height="294">
<path d="M165.748 14.2602V5.33027C165.748 3.34584 164.029 1.79138 162.077 2.02289C88.2896 10.3906 31.0058 72.9331 31.0058 148.937C31.0058 223.353 91.3324 283.746 165.748 283.746V292.642C165.748 294.627 167.468 296.181 169.42 295.983C243.141 287.615 300.392 224.94 300.458 149.003C300.491 74.5868 240.165 14.2602 165.748 14.2602Z" fill="#C7ABFF"/>
</mask>
<g mask="url(#mask0)">
<path d="M140.249 311.065H109.457L110.449 271.541C111.541 257.022 113.591 242.602 116.601 228.347C118.552 219.153 121.463 209.131 126.887 201.458C131.682 203.972 136.842 205.691 142.299 207.279C142.597 208.602 142.861 209.892 143.159 211.215C160.655 212.405 178.019 210.19 189.066 205.03L189.396 205.063C186.188 236.219 179.375 266.878 172.595 297.438L170.081 311.065H140.249Z" fill="black"/>
<path d="M122.786 199.01L122.719 199.11C116.402 209.826 112.467 221.831 110.019 234.003C107.539 246.207 106.513 258.643 105.753 271.045L104.793 311.064H97.418L98.1456 276.238C98.4102 263.835 99.7662 251.465 102.313 239.327C106.745 218.226 112.897 206.485 116.733 201.689C117.924 200.201 119.048 198.647 120.04 196.993L120.14 197.059C120.967 197.754 121.893 198.415 122.786 199.01Z" fill="black"/>
<path d="M126.92 201.458C121.496 209.131 118.552 219.153 116.634 228.347C113.624 242.602 111.574 257.022 110.482 271.541L109.457 311.065" stroke="black" stroke-width="1.2" stroke-miterlimit="10" stroke-linecap="round" stroke-linejoin="round"/>
<path d="M122.719 199.11C116.435 209.826 112.467 221.831 110.019 234.002C107.572 246.174 106.513 258.642 105.753 271.045L104.793 311.064" stroke="black" stroke-width="1.2" stroke-miterlimit="10" stroke-linecap="round" stroke-linejoin="round"/>
<path d="M155.859 241.973C152.618 256.294 143.49 296.81 140.249 311.131" stroke="#C7ABFF" stroke-width="1.2" stroke-miterlimit="10" stroke-linecap="round" stroke-linejoin="round"/>
<path d="M184.27 110.373C192.141 140.933 192.704 172.981 189.529 204.368C186.353 235.755 179.507 266.646 172.661 297.438L170.147 311.064H97.3849L98.1125 276.238C98.3771 263.835 99.7332 251.465 102.28 239.327C106.712 218.259 112.863 206.485 116.7 201.689C121.165 196.067 124.638 189.386 124.406 182.209C123.778 163.225 120.834 148.672 117.031 131.804" stroke="#C7ABFF" stroke-width="1.2" stroke-miterlimit="10" stroke-linecap="round" stroke-linejoin="round"/>
<path d="M119.081 196.365C125.762 201.623 134.196 204.898 142.332 207.279" stroke="#C7ABFF" stroke-width="1.2" stroke-miterlimit="10" stroke-linecap="round" stroke-linejoin="round"/>
</g>
<path d="M118.85 108.124C127.184 141.032 135.949 178.042 143.225 211.215" stroke="#C7ABFF" stroke-width="1.2" stroke-miterlimit="10" stroke-linecap="round" stroke-linejoin="round"/>
<path d="M143.225 211.215C160.721 212.405 179.507 209.429 190.554 204.269" stroke="#C7ABFF" stroke-width="1.2" stroke-miterlimit="10" stroke-linecap="round" stroke-linejoin="round"/>
<path d="M151.494 97.54L152.089 105.412" stroke="#C7ABFF" stroke-width="1.2" stroke-miterlimit="10" stroke-linecap="round" stroke-linejoin="round"/>
<path d="M49.8909 100.847L52.5368 100.947" stroke="black" stroke-width="1.2" stroke-miterlimit="10" stroke-linecap="round" stroke-linejoin="round"/>
<mask id="mask1" mask-type="alpha" maskUnits="userSpaceOnUse" x="115" y="24" width="51" height="34">
<path d="M164.128 56.7269C164.128 51.9643 164.789 36.155 164.922 33.013C164.922 32.6822 164.756 32.3515 164.492 32.1861C160.953 30.0033 138.132 17.1045 116.237 31.2931C115.906 31.5247 115.741 31.9215 115.84 32.3184C117.791 39.6939 121.562 52.9234 122.356 55.7347" fill="#C4C4C4"/>
<path d="M164.128 56.7269C164.128 51.9643 164.789 36.155 164.922 33.013C164.922 32.6822 164.756 32.3515 164.492 32.1861C160.953 30.0033 138.132 17.1045 116.237 31.2931C115.906 31.5247 115.741 31.9215 115.84 32.3184C117.791 39.6939 121.562 52.9234 122.356 55.7347" stroke="black" stroke-width="1.2" stroke-miterlimit="10" stroke-linecap="round" stroke-linejoin="round"/>
</mask>
<g mask="url(#mask1)">
<path d="M120.239 51.7328C120.239 51.7328 128.904 46.0772 142.498 46.3087C155.628 46.5071 165.252 52.3612 165.252 52.3612" stroke="white" stroke-width="1.2" stroke-miterlimit="10" stroke-linecap="round" stroke-linejoin="round"/>
<path d="M165.748 37.5774C154.173 30.7973 131.649 22.6611 116.237 37.4451" stroke="white" stroke-width="1.2" stroke-miterlimit="10" stroke-linecap="round" stroke-linejoin="round"/>
</g>
<path d="M136.644 42.836C138.872 42.836 140.679 40.6593 140.679 37.9742C140.679 35.289 138.872 33.1123 136.644 33.1123C134.415 33.1123 132.609 35.289 132.609 37.9742C132.609 40.6593 134.415 42.836 136.644 42.836Z" stroke="white" stroke-width="1.2" stroke-miterlimit="10" stroke-linecap="round" stroke-linejoin="round"/>
<path d="M73.1418 246.868C97.2857 269.722 129.863 283.745 165.748 283.745V292.642C165.748 294.627 167.468 296.181 169.42 295.983C194.523 293.138 217.707 283.977 237.419 270.152" stroke="none" stroke-width="2" stroke-miterlimit="10" stroke-linecap="round" stroke-linejoin="round"/>
</svg>
